# Blender v2.93.1 OBJ File: ''
# www.blender.org
mtllib half_cy.mtl
o convex_0.002
v 0.344275 0.249829 -0.005967
v 0.337606 0.229714 -1.512663
v 0.344276 0.249829 -1.512663
v -0.352067 0.343559 -0.005967
v -0.345328 0.289989 -0.005967
v 0.357754 0.363674 -0.005967
v 0.096575 0.015468 -1.512663
v -0.352066 0.363674 -1.512663
v 0.357755 0.363674 -1.512663
v -0.090887 0.015468 -0.005967
v -0.238186 0.095824 -1.512663
v 0.230464 0.082448 -0.005967
v 0.304116 0.162804 -1.512663
v -0.264938 0.122609 -0.005967
v -0.090886 0.015468 -1.512663
v 0.337605 0.229714 -0.005967
v -0.352067 0.363674 -0.005967
v 0.069754 0.008764 -0.005967
v -0.331917 0.236419 -1.512663
v 0.170225 0.042254 -1.512663
v -0.184617 0.055663 -0.005967
v 0.351016 0.276614 -1.512663
v 0.156814 0.035549 -0.005967
v 0.304115 0.162804 -0.005967
v -0.298428 0.169509 -0.005967
v -0.057396 0.008764 -1.512663
v -0.285017 0.149394 -1.512663
v 0.230465 0.082448 -1.512663
v -0.144456 0.035549 -1.512663
v 0.357754 0.310069 -0.005967
v -0.331918 0.236419 -0.005967
v -0.057397 0.008764 -0.005967
v 0.069755 0.008764 -1.512663
v -0.345327 0.289989 -1.512663
v 0.284035 0.136019 -0.005967
v -0.184616 0.055663 -1.512663
v -0.131047 0.028878 -0.005967
v 0.357755 0.310069 -1.512663
v -0.238187 0.095824 -0.005967
v 0.284036 0.136019 -1.512663
v 0.203645 0.062368 -0.005967
v -0.298427 0.169509 -1.512663
v -0.204696 0.069039 -1.512663
v -0.264937 0.122609 -1.512663
v -0.352066 0.343559 -1.512663
v 0.096574 0.015468 -0.005967
v 0.156815 0.035549 -1.512663
v 0.203646 0.062368 -1.512663
v -0.204697 0.069039 -0.005967
v -0.131046 0.028878 -1.512663
v 0.170224 0.042254 -0.005967
v 0.351015 0.276614 -0.005967
v -0.285018 0.149394 -0.005967
vn 0.9492 -0.3147 0.0000
vn 0.0000 0.0000 1.0000
vn 0.0000 0.0000 -1.0000
vn 0.0000 1.0000 -0.0000
vn -1.0000 0.0000 -0.0000
vn 0.8942 -0.4476 0.0000
vn -0.1963 -0.9805 -0.0000
vn 1.0000 0.0000 0.0000
vn -0.9701 -0.2428 -0.0000
vn -0.8942 -0.4476 -0.0000
vn 0.0000 -1.0000 -0.0000
vn 0.2425 -0.9702 0.0000
vn -0.9922 -0.1248 -0.0000
vn 0.8001 -0.5998 0.0000
vn 0.7071 -0.7071 0.0000
vn -0.4478 -0.8941 -0.0000
vn -0.3167 -0.9485 -0.0000
vn -0.4472 -0.8944 0.0000
vn 0.9803 -0.1975 0.0000
vn -0.7076 -0.7067 -0.0000
vn 0.5993 -0.8005 0.0000
vn -0.8321 -0.5547 -0.0000
vn -0.5544 -0.8323 -0.0000
vn -0.6246 -0.7809 -0.0000
vn -0.8001 -0.5998 -0.0000
vn 0.3162 -0.9487 0.0000
vn 0.4472 -0.8944 0.0000
vn 0.5157 -0.8568 0.0000
vn -0.4454 -0.8953 -0.0000
vn 0.0003 0.0000 1.0000
vn 0.9698 -0.2440 0.0000
vn -0.0003 -0.0000 1.0000
vn -0.8320 -0.5547 -0.0000
usemtl Default_OBJ.002
s off
f 1//1 2//1 3//1
f 4//2 5//2 6//2
f 7//3 8//3 9//3
f 8//4 6//4 9//4
f 6//2 5//2 10//2
f 8//3 7//3 11//3
f 6//2 10//2 12//2
f 7//3 9//3 13//3
f 10//2 5//2 14//2
f 11//3 7//3 15//3
f 6//2 12//2 16//2
f 4//2 6//2 17//2
f 6//4 8//4 17//4
f 8//5 4//5 17//5
f 12//2 10//2 18//2
f 8//3 11//3 19//3
f 7//3 13//3 20//3
f 10//2 14//2 21//2
f 13//3 9//3 22//3
f 12//2 18//2 23//2
f 16//2 12//2 24//2
f 13//6 16//6 24//6
f 14//2 5//2 25//2
f 15//3 7//3 26//3
f 10//7 15//7 26//7
f 19//3 11//3 27//3
f 20//3 13//3 28//3
f 11//3 15//3 29//3
f 9//8 6//8 30//8
f 6//2 16//2 30//2
f 5//9 19//9 31//9
f 25//2 5//2 31//2
f 19//10 25//10 31//10
f 18//2 10//2 32//2
f 10//7 26//7 32//7
f 26//11 18//11 32//11
f 7//12 18//12 33//12
f 26//3 7//3 33//3
f 18//11 26//11 33//11
f 5//13 4//13 34//13
f 19//9 5//9 34//9
f 8//3 19//3 34//3
f 24//2 12//2 35//2
f 13//14 24//14 35//14
f 12//15 28//15 35//15
f 16//6 13//6 2//6
f 13//3 22//3 2//3
f 11//3 29//3 36//3
f 29//16 21//16 36//16
f 15//17 10//17 37//17
f 10//2 21//2 37//2
f 21//18 29//18 37//18
f 22//3 9//3 38//3
f 9//8 30//8 38//8
f 30//19 22//19 38//19
f 14//20 11//20 39//20
f 21//2 14//2 39//2
f 28//3 13//3 40//3
f 13//14 35//14 40//14
f 35//15 28//15 40//15
f 12//2 23//2 41//2
f 28//21 12//21 41//21
f 25//10 19//10 42//10
f 19//3 27//3 42//3
f 27//22 25//22 42//22
f 11//3 36//3 43//3
f 36//23 21//23 43//23
f 39//24 11//24 43//24
f 11//20 14//20 44//20
f 27//3 11//3 44//3
f 14//25 27//25 44//25
f 30//2 16//2 1//2
f 16//1 2//1 1//1
f 4//5 8//5 45//5
f 34//13 4//13 45//13
f 8//3 34//3 45//3
f 18//12 7//12 46//12
f 7//26 23//26 46//26
f 23//2 18//2 46//2
f 7//3 20//3 47//3
f 23//26 7//26 47//26
f 20//27 23//27 47//27
f 20//3 28//3 48//3
f 41//28 20//28 48//28
f 28//21 41//21 48//21
f 21//2 39//2 49//2
f 43//23 21//23 49//23
f 39//24 43//24 49//24
f 29//3 15//3 50//3
f 15//17 37//17 50//17
f 37//29 29//29 50//29
f 23//27 20//27 51//27
f 41//2 23//2 51//2
f 20//28 41//28 51//28
f 22//19 30//19 52//19
f 30//30 1//30 52//30
f 1//31 22//31 52//31
f 14//32 25//32 53//32
f 27//25 14//25 53//25
f 25//33 27//33 53//33
f 2//3 22//3 3//3
f 22//31 1//31 3//31
